<svg width="68" height="66" viewBox="0 0 68 66" version="1.1" xmlns="http://www.w3.org/2000/svg" xmlns:xlink="http://www.w3.org/1999/xlink">
<title>pdf</title>
<desc>Created using Figma</desc>
<g id="Canvas" transform="translate(-48854 5522)">
<g id="pdf">
<g id="Group">
<g id="Group">
<g id="Vector">
<use xlink:href="#path0_fill" transform="translate(48854 -5522)" fill="#F7931E"/>
</g>
</g>
</g>
<g id="Group">
<g id="Group">
<g id="Vector">
<use xlink:href="#path1_fill" transform="translate(48861.5 -5490.5)" fill="#213F9A"/>
</g>
</g>
</g>
<g id="Group">
<g id="Group">
<g id="Vector">
<use xlink:href="#path2_fill" transform="translate(48871.6 -5490.5)" fill="#213F9A"/>
</g>
</g>
</g>
<g id="Group">
<g id="Group">
<g id="Vector">
<use xlink:href="#path3_fill" transform="translate(48882.7 -5490.5)" fill="#213F9A"/>
</g>
</g>
</g>
</g>
</g>
<defs>
<path id="path0_fill" d="M 67.6121 17.8609L 49.2276 0.389039C 48.9658 0.140508 48.6047 0 48.2276 0L 20.8267 0C 17.7602 0 15.2653 2.28087 15.2653 5.08432L 15.2653 22.8462L 4.1608 22.8462C 1.86652 22.8462 7.52721e-09 24.5528 7.52721e-09 26.6506L 7.52721e-09 45.6957C 7.52721e-09 47.7934 1.86652 49.5 4.1608 49.5L 15.2653 49.5L 15.2653 60.9246C 15.2653 63.7231 17.7602 66 20.8267 66L 62.4386 66C 65.5052 66 68 63.7244 68 60.9274L 68 18.741C 68 18.4128 67.8609 18.0974 67.6121 17.8609ZM 48.5715 3.42646L 63.6636 17.7692L 48.5715 17.7692L 48.5715 3.42646ZM 4.1608 46.9616C 3.39689 46.9616 2.77561 46.3937 2.77561 45.6957L 2.77561 26.6506C 2.77561 25.9526 3.39703 25.3846 4.1608 25.3846L 41.6352 25.3846C 42.3991 25.3846 43.0204 25.9526 43.0204 26.6506L 43.0204 45.6957C 43.0204 46.3937 42.399 46.9616 41.6352 46.9616L 4.1608 46.9616ZM 65.2244 60.9274C 65.2244 62.3248 63.9746 63.4616 62.4385 63.4616L 20.8267 63.4616C 19.2905 63.4616 18.0408 62.3236 18.0408 60.9247L 18.0408 49.5L 41.6352 49.5C 43.9295 49.5 45.796 47.7934 45.796 45.6957L 45.796 26.6506C 45.796 24.5528 43.9295 22.8462 41.6352 22.8462L 18.0408 22.8462L 18.0408 5.08432C 18.0408 3.6804 19.2905 2.53842 20.8267 2.53842L 45.7959 2.53842L 45.7959 19.0384C 45.7959 19.7394 46.4173 20.3076 47.1836 20.3076L 65.2244 20.3076L 65.2244 60.9274Z"/>
<path id="path1_fill" d="M 7.72949 1.25131C 7.30755 0.694327 6.78377 0.332618 6.15829 0.166309C 5.7512 0.0554369 4.87751 -9.1188e-07 3.53709 -9.1188e-07L 8.66573e-08 -9.1188e-07L 8.66573e-08 11.0842L 2.20416 11.0842L 2.20416 6.90305L 3.64138 6.90305C 4.63924 6.90305 5.40128 6.8501 5.92751 6.74421C 6.31472 6.6585 6.69575 6.48341 7.07057 6.21868C 7.4454 5.95408 7.7544 5.58988 7.9977 5.1262C 8.241 4.66253 8.36258 4.09035 8.36258 3.40991C 8.36246 2.52778 8.15142 1.80829 7.72949 1.25131ZM 5.84181 4.30213C 5.67556 4.54917 5.44594 4.73055 5.15295 4.84653C 4.85995 4.96252 4.27926 5.02044 3.41047 5.02044L 2.20416 5.02044L 2.20416 1.87513L 3.26901 1.87513C 4.06332 1.87513 4.592 1.90029 4.85505 1.95075C 5.21245 2.01628 5.50789 2.18009 5.74113 2.4422C 5.97449 2.70431 6.09117 3.03706 6.09117 3.44019C 6.0913 3.76782 6.00805 4.05509 5.84181 4.30213Z"/>
<path id="path2_fill" d="M 8.79433 3.02815C 8.55606 2.31993 8.20847 1.7214 7.75181 1.23244C 7.29516 0.743473 6.74647 0.403255 6.10615 0.211653C 5.62961 0.0705072 4.93701 -9.1188e-07 4.0286 -9.1188e-07L -8.98085e-07 -9.1188e-07L -8.98085e-07 11.0842L 4.14773 11.0842C 4.96192 11.0842 5.61218 11.0061 6.09866 10.8498C 6.74905 10.6381 7.26534 10.3432 7.64752 9.96514C 8.15387 9.46608 8.54354 8.81343 8.81666 8.00692C 9.04008 7.34653 9.15173 6.5602 9.15173 5.64793C 9.15173 4.60958 9.0326 3.73637 8.79433 3.02815ZM 6.64967 7.57981C 6.50072 8.07638 6.3084 8.43298 6.07259 8.64961C 5.83677 8.86637 5.54016 9.0201 5.18276 9.11079C 4.90977 9.18143 4.46538 9.21668 3.84983 9.21668L 2.20417 9.21668L 2.20417 1.87513L 3.19453 1.87513C 4.09301 1.87513 4.69629 1.91039 5.004 1.98102C 5.416 2.07171 5.7561 2.24562 6.02418 2.50275C 6.29227 2.75988 6.50072 3.11766 6.64967 3.57635C 6.79862 4.03504 6.87309 4.69281 6.87309 5.54977C 6.87309 6.40661 6.79862 7.08325 6.64967 7.57981Z"/>
<path id="path3_fill" d="M 7.48373 1.87513L 7.48373 -9.1188e-07L -8.98085e-07 -9.1188e-07L -8.98085e-07 11.0842L 2.20417 11.0842L 2.20417 6.37384L 6.76144 6.37384L 6.76144 4.49871L 2.20417 4.49871L 2.20417 1.87513L 7.48373 1.87513Z"/>
</defs>
</svg>
